<?xml version="1.0" standalone="no"?>
<!DOCTYPE svg PUBLIC "-//W3C//DTD SVG 20010904//EN"
 "http://www.w3.org/TR/2001/REC-SVG-20010904/DTD/svg10.dtd">
<svg version="1.0" xmlns="http://www.w3.org/2000/svg"
 width="194.000000pt" height="194.000000pt" viewBox="0 0 194.000000 194.000000"
 preserveAspectRatio="xMidYMid meet">
<metadata>
Created by potrace 1.11, written by Peter Selinger 2001-2013
</metadata>
<g transform="translate(0.000000,194.000000) scale(0.100000,-0.100000)"
fill="#000000" stroke="none">
<path d="M1469 1261 c-20 -16 -22 -23 -14 -47 18 -52 95 -42 95 12 0 20 -32
54 -51 54 -4 0 -17 -9 -30 -19z"/>
<path d="M1652 1264 c-12 -8 -22 -26 -22 -38 0 -54 77 -64 95 -12 8 24 6 31
-14 47 -28 23 -31 23 -59 3z"/>
<path d="M246 1108 c-46 -23 -66 -54 -66 -99 0 -53 41 -91 122 -113 105 -29
133 -60 89 -100 -37 -33 -141 -12 -141 28 0 9 -15 15 -40 18 -47 4 -51 -9 -20
-60 48 -78 193 -90 262 -22 22 22 28 38 28 70 0 56 -37 91 -122 115 -70 19
-107 42 -108 66 0 27 37 52 77 52 29 0 43 -7 67 -34 24 -27 37 -34 59 -31 26
3 28 7 23 30 -9 37 -69 92 -103 94 -75 4 -95 2 -127 -14z"/>
<path d="M699 1121 c-97 -20 -154 -97 -153 -207 1 -118 76 -195 192 -197 132
-2 215 87 207 221 -8 126 -119 208 -246 183z m117 -81 c48 -30 71 -118 46
-180 -27 -67 -114 -99 -178 -65 -62 33 -84 126 -48 201 31 65 114 85 180 44z"/>
<path d="M1112 1105 c-98 -47 -135 -178 -82 -290 21 -44 88 -94 130 -96 46 -3
90 -1 114 5 31 8 81 54 100 94 l17 32 -45 0 c-34 0 -45 -4 -49 -19 -12 -45
-95 -67 -152 -40 -81 38 -87 202 -10 253 54 35 149 14 162 -35 4 -15 15 -19
49 -19 l44 0 -12 28 c-29 67 -83 102 -164 106 -40 2 -67 -3 -102 -19z"/>
<path d="M1460 920 l0 -200 40 0 40 0 0 200 0 200 -40 0 -40 0 0 -200z"/>
<path d="M1640 920 l0 -200 39 0 39 0 -1 200 0 200 -39 0 -38 0 0 -200z"/>
</g>
</svg>
