<?xml version="1.0" standalone="no"?>
<!DOCTYPE svg PUBLIC "-//W3C//DTD SVG 20010904//EN"
 "http://www.w3.org/TR/2001/REC-SVG-20010904/DTD/svg10.dtd">
<svg version="1.0" xmlns="http://www.w3.org/2000/svg"
 width="256.000000pt" height="256.000000pt" viewBox="0 0 256.000000 256.000000"
 preserveAspectRatio="xMidYMid meet">
<metadata>
Created by potrace 1.16, written by Peter Selinger 2001-2019
</metadata>
<g transform="translate(0.000000,256.000000) scale(0.100000,-0.100000)"
fill="#000000" stroke="none">
<path d="M1630 2487 c-109 -45 -206 -131 -253 -224 -31 -61 -57 -147 -57 -190
0 -31 2 -33 28 -27 56 13 152 64 196 104 91 84 166 232 166 326 0 40 -6 41
-80 11z"/>
<path d="M1617 1899 c-66 -10 -123 -26 -221 -63 -89 -34 -118 -33 -229 8 -137
51 -176 59 -280 54 -153 -8 -268 -61 -388 -181 -52 -51 -78 -88 -108 -150 -65
-136 -76 -195 -76 -407 0 -205 17 -308 77 -479 91 -257 277 -523 418 -597 49
-26 65 -29 150 -29 83 0 101 3 145 26 139 72 259 78 395 19 56 -25 93 -34 155
-37 106 -7 169 16 254 93 99 90 261 350 307 495 9 30 21 59 26 65 15 20 -3 44
-56 70 -144 72 -236 224 -236 392 0 155 56 268 183 368 72 57 74 80 17 153
-118 149 -330 229 -533 200z"/>
</g>
</svg>
