<svg class="rv-xy-plot__inner" width="840" height="480.59999999999997">
  <g
    transform="translate(10,405.59999999999997)"
    class="rv-xy-plot__axis rv-xy-plot__axis--horizontal"
  >
    <line x1="0" x2="820" y1="0" y2="0" class="rv-xy-plot__axis__line"></line>
    <g transform="translate(0, 0)" class="rv-xy-plot__axis__ticks">
      <g
        transform="translate(32.465313244807625, 0)"
        class="rv-xy-plot__axis__tick"
      >
        <line
          x1="0"
          x2="0"
          y1="-6"
          y2="6"
          class="rv-xy-plot__axis__tick__line"
        ></line>
        <text
          text-anchor="end"
          dy="0"
          transform="translate(0, 14) rotate(-75)"
          class="rv-xy-plot__axis__tick__text"
        >
          01/01/2011
        </text>
      </g>
      <g
        transform="translate(108.89534388832142, 0)"
        class="rv-xy-plot__axis__tick"
      >
        <line
          x1="0"
          x2="0"
          y1="-6"
          y2="6"
          class="rv-xy-plot__axis__tick__line"
        ></line>
        <text
          text-anchor="end"
          dy="0"
          transform="translate(0, 14) rotate(-75)"
          class="rv-xy-plot__axis__tick__text"
        >
          01/01/2012
        </text>
      </g>
      <g
        transform="translate(185.534771876064, 0)"
        class="rv-xy-plot__axis__tick"
      >
        <line
          x1="0"
          x2="0"
          y1="-6"
          y2="6"
          class="rv-xy-plot__axis__tick__line"
        ></line>
        <text
          text-anchor="end"
          dy="0"
          transform="translate(0, 14) rotate(-75)"
          class="rv-xy-plot__axis__tick__text"
        >
          01/01/2013
        </text>
      </g>
      <g
        transform="translate(261.9648025195778, 0)"
        class="rv-xy-plot__axis__tick"
      >
        <line
          x1="0"
          x2="0"
          y1="-6"
          y2="6"
          class="rv-xy-plot__axis__tick__line"
        ></line>
        <text
          text-anchor="end"
          dy="0"
          transform="translate(0, 14) rotate(-75)"
          class="rv-xy-plot__axis__tick__text"
        >
          01/01/2014
        </text>
      </g>
      <g
        transform="translate(338.39483316309156, 0)"
        class="rv-xy-plot__axis__tick"
      >
        <line
          x1="0"
          x2="0"
          y1="-6"
          y2="6"
          class="rv-xy-plot__axis__tick__line"
        ></line>
        <text
          text-anchor="end"
          dy="0"
          transform="translate(0, 14) rotate(-75)"
          class="rv-xy-plot__axis__tick__text"
        >
          01/01/2015
        </text>
      </g>
      <g
        transform="translate(414.8248638066054, 0)"
        class="rv-xy-plot__axis__tick"
      >
        <line
          x1="0"
          x2="0"
          y1="-6"
          y2="6"
          class="rv-xy-plot__axis__tick__line"
        ></line>
        <text
          text-anchor="end"
          dy="0"
          transform="translate(0, 14) rotate(-75)"
          class="rv-xy-plot__axis__tick__text"
        >
          01/01/2016
        </text>
      </g>
      <g
        transform="translate(491.46429179434796, 0)"
        class="rv-xy-plot__axis__tick"
      >
        <line
          x1="0"
          x2="0"
          y1="-6"
          y2="6"
          class="rv-xy-plot__axis__tick__line"
        ></line>
        <text
          text-anchor="end"
          dy="0"
          transform="translate(0, 14) rotate(-75)"
          class="rv-xy-plot__axis__tick__text"
        >
          01/01/2017
        </text>
      </g>
      <g
        transform="translate(567.8943224378618, 0)"
        class="rv-xy-plot__axis__tick"
      >
        <line
          x1="0"
          x2="0"
          y1="-6"
          y2="6"
          class="rv-xy-plot__axis__tick__line"
        ></line>
        <text
          text-anchor="end"
          dy="0"
          transform="translate(0, 14) rotate(-75)"
          class="rv-xy-plot__axis__tick__text"
        >
          01/01/2018
        </text>
      </g>
      <g
        transform="translate(644.3243530813755, 0)"
        class="rv-xy-plot__axis__tick"
      >
        <line
          x1="0"
          x2="0"
          y1="-6"
          y2="6"
          class="rv-xy-plot__axis__tick__line"
        ></line>
        <text
          text-anchor="end"
          dy="0"
          transform="translate(0, 14) rotate(-75)"
          class="rv-xy-plot__axis__tick__text"
        >
          01/01/2019
        </text>
      </g>
      <g
        transform="translate(720.7543837248894, 0)"
        class="rv-xy-plot__axis__tick"
      >
        <line
          x1="0"
          x2="0"
          y1="-6"
          y2="6"
          class="rv-xy-plot__axis__tick__line"
        ></line>
        <text
          text-anchor="end"
          dy="0"
          transform="translate(0, 14) rotate(-75)"
          class="rv-xy-plot__axis__tick__text"
        >
          01/01/2020
        </text>
      </g>
      <g
        transform="translate(797.3938117126319, 0)"
        class="rv-xy-plot__axis__tick"
      >
        <line
          x1="0"
          x2="0"
          y1="-6"
          y2="6"
          class="rv-xy-plot__axis__tick__line"
        ></line>
        <text
          text-anchor="end"
          dy="0"
          transform="translate(0, 14) rotate(-75)"
          class="rv-xy-plot__axis__tick__text"
        >
          01/01/2021
        </text>
      </g>
    </g>
  </g>
  <path
    d="M820,200.74048239895694L819.3718079673135,193.69061277705347L819.1624106230847,193.95130378096476L818.953013278856,195.80697522816163L818.7436159346272,187.37235984354626L818.5342185903984,204.28644067796608L817.9060265577119,211.28305084745762L817.6966292134832,209.3825293350717L817.4872318692544,212.9789439374185L817.2778345250255,207.19048239895693L817.0684371807968,207.350260756193L816.2308478038815,215.56342894393742L816.0214504596527,213.83109517601042L815.8120531154239,222.88800521512383L815.6026557711951,229.7080182529335L814.9831886278515,227.6280964797914L814.7737912836227,221.55091264667539L814.564393939394,224.38767926988263L814.3549965951652,215.44850065189047L814.1455992509362,213.25084745762715L813.5174072182499,217.4919817470665L813.3080098740212,217.97131681877445L813.0986125297923,204.33409387222946L812.8892151855634,211.32229465449805L812.6798178413347,202.61577574967401L812.0516258086483,206.5990221642764L811.8422284644195,204.95358539765317L811.6328311201906,213.7946544980443L811.4234337759619,212.24732724902213L811.2140364317331,243.2443285528031L810.5858443990467,233.44739243807038L810.3764470548178,226.86284224250323L810.167049710589,217.96010430247716L809.9576523663602,208.64250325945235L809.7482550221314,199.67529335071708L809.120062989445,211.70912646675353L808.9106656452161,209.82542372881352L808.7012683009874,193.06271186440677L808.4918709567586,205.16662320730114L808.2824736125298,200.77692307692308L807.6542815798433,182.05202086049542L807.4448842356146,180.3477183833116L807.2354868913858,177.3287483702738L807.026089547157,177.86975228161666L806.1885001702418,172.29152542372879L805.979102826013,173.5417209908735L805.7697054817841,175.4590612777053L805.5603081375554,162.9458930899609L805.3509107933265,159.03272490221642L804.7227187606401,162.16942633637547L804.5133214164113,162.79732724902212L804.3039240721826,161.47985658409382L804.0945267279537,156.40619295958277L803.8851293837249,165.65091264667535L803.2569373510385,178.62379400260758L803.0475400068098,166.87868318122557L802.8381426625809,158.82529335071706L802.628745318352,153.5189700130378L802.4193479741232,154.16088657105604L801.7911559414368,163.73637548891784L801.581758597208,164.19889178617987L801.3723612529792,162.66838331160363L801.1629639087504,164.3222294654498L800.3253745318352,169.47718383311604L800.1159771876064,164.1960886571056L799.9065798433776,161.55834419817472L799.6971824991488,162.9514993481095L799.48778515492,173.67346805736634L798.8595931222336,154.37953063885269L798.6501957780048,172.31395045632334L798.440798433776,189.1495436766623L798.2314010895471,194.99967405475877L798.0220037453183,196.49654498044328L797.1844143684032,203.25208604954366L796.9750170241743,206.30469361147325L796.7656196799455,214.37490221642759L796.5562223357167,215.01962190352018L795.7186329588015,215.55782268578878L795.5092356145727,219.98396349413298L795.2998382703438,221.56492829204691L795.0904409261151,218.89634941329857L794.4622488934286,206.24302477183832L794.2528515491998,217.20325945241197L794.043454204971,226.4900260756193L793.8340568607423,223.55234680573662L793.6246595165135,221.70788787483698L792.996467483827,230.07242503259448L792.7870701395982,225.2846805736636L792.5776727953695,231.61694915254236L792.3682754511406,218.8907431551499L792.1588781069117,221.16688396349412L791.5306860742254,233.14185136897L791.3212887299966,234.72842242503256L791.1118913857678,241.6129074315515L790.902494041539,237.14471968709256L790.6930966973102,241.954889178618L790.0649046646238,236.86440677966098L789.6461099761661,240.16088657105607L789.4367126319374,245.38031290743152L789.2273152877085,254.77920469361143L784.2017790262173,292.28787483702735L777.9111338100103,280.8034550195567L771.629213483146,261.37496740547584L765.1378958120531,0L758.6465781409602,98.37581486310299L751.9458631256384,166.9992177314211L745.8733401430031,181.88943937418512L739.5914198161389,254.17653194263363L732.89942969016,213.8142764015645L727.0363040517535,218.6973272490221L720.5449863806605,283.7971968709257L713.8442713653387,308.5740547588005L707.7717483827034,312.78435462842236L701.2717058222677,333.5415254237288L694.7803881511747,337.81910039113427L688.4984678243105,333.3340938722294L681.58835546476,338.4217731421121L675.7252298263534,349.15775749674054L669.2339121552604,334.1526075619296L662.5419220292816,322.6121251629726L656.4693990466462,311.3940026075619L650.6062734082396,314.99882659713165L644.1149557371467,307.77235984354627L637.6236380660538,302.8164276401564L631.3417177391897,306.5053455019556L624.4228804902962,326.84204693611474L618.5597548518897,316.50130378096475L612.0684371807968,317.48800521512385L605.367722165475,304.92718383311603L599.2951991828396,321.24700130378096L592.8038815117467,318.67653194263363L586.1031664964249,326.4608213820078L580.0393684031325,304.89634941329854L574.1762427647259,301.7428292046936L567.2661304051753,313.785071707953L561.1936074225399,314.4858539765319L554.9116870956758,308.1283572359843L548.2022471910112,305.4457627118644L542.1297242083759,301.29713168187743L535.638406537283,310.3876792698826L529.14708886619,299.69654498044326L522.8651685393259,305.4709908735332L515.9550561797753,313.0226205997392L510.0919305413687,323.0494132985658L503.6093377596187,330.985071707953L497.7462121212122,330.44126466753585L491.0454971058904,341.16043024771835L484.76357677902627,347.9692307692307L478.48165645216204,345.63422425032593L471.9816138917262,343.8682529335071L465.6996935648621,341.63135593220335L458.7895812053116,335.2458279009126L452.7170582226762,341.5556714471968L446.4351378958121,338.48624511082136L439.7344228804903,333.5723598435462L433.66189989785494,336.652998696219L427.1793071161049,347.2600391134289L420.68798944501197,347.46466753585395L414.61546646237656,333.78259452411993L408.12414879128363,336.51564537157753L401.63283112019064,343.0553455019556L395.34218590398365,331.4307692307692L389.06026557711954,331.24576271186436L382.56894790602655,326.4552151238592L376.0776302349336,325.8637548891786L369.3769152196119,330.7580182529334L363.30439223697647,337.69576271186435L357.02247191011236,348.1458279009126L350.33048178413344,344.06166883963493L344.4673561457269,343.9887874837027L338.1854358188628,338.7161016949152L331.27532345931223,332.5183833116036L325.4121978209057,333.3088657105606L318.9121552604699,333.03415906127765L312.2114402451481,325.4601043024772L306.13891726251273,338.46662320730115L299.6475995914198,333.7685788787483L293.1562819203269,342.81988265971313L286.8743615934627,342.78624511082137L280.59244126659854,342.6292698826597L274.1098484848485,332.43709256844846L268.24672284644197,350.20893089960884L261.755405175349,358.89330508474575L255.05469016002723,365.3822685788787L248.98216717739191,356.22724902216424L242.48212461695607,346.85638852672747L235.9908069458631,353.68761408083435L229.708886618999,363.42007822685787L222.7987742594484,370.96610169491527L216.93564862104188,373.65710560625814L210.44433094994892,385.9264015645371L203.54294347974124,390.4394393741851L197.67981784133468,391.29719687092563L191.81669220292815,390.5459582790091L185.32537453183522,391.56629726205995L178.83405686074227,391.5803129074315L172.5521365338781,393.17490091264665L165.63329928498467,392.85293350717075L159.77017364657814,393.0659713168188L153.2788559754852,393.37431551499344L146.57814096016344,392.2895045632333L140.5056179775281,392.7912646675358L134.01430030643513,391.7737288135593L127.52298263534217,390.62164276401563L121.24978719782091,391.69524119947846L115.17726421518557,392.91179921773136L108.4765491998638,393.0547588005215L102.19462887299966,391.8830508474576L95.91270854613552,392.8277053455019L89.41266598569969,394.22366362451106L83.13074565883555,394.12555410691L76.22063329928498,393.1640808344198L70.14811031664964,392.8949804432855L63.8661899897855,392.6118644067796L57.16547497446374,393.32385919165574L51.0929519918284,393.281812255541L44.610359210078315,394.3638200782268L38.74723357167177,394.3049543676662L32.25591590057883,393.5957627118644L25.76459822948587,391.1570404172099L19.055158324821246,394.9384615384615L12.982635342185905,395.3407105606258L6.700715015321757,395.59999999999997L0,395.47105606258145"
    class="rv-xy-plot__series rv-xy-plot__series--line [object Object]"
    transform="translate(10,10)"
    style="opacity: 1; stroke-width: 2px; stroke: rgb(15, 169, 230)"
  ></path>
</svg>
