<?xml version="1.0" standalone="no"?>
<!DOCTYPE svg PUBLIC "-//W3C//DTD SVG 20010904//EN"
 "http://www.w3.org/TR/2001/REC-SVG-20010904/DTD/svg10.dtd">
<svg version="1.0" xmlns="http://www.w3.org/2000/svg"
 width="256.000000pt" height="256.000000pt" viewBox="0 0 256.000000 256.000000"
 preserveAspectRatio="xMidYMid meet">

<g transform="translate(0.000000,256.000000) scale(0.100000,-0.100000)"
fill="#000000" stroke="none">
<path d="M1451 2545 c-206 -47 -342 -185 -386 -391 -10 -47 -15 -132 -15 -266
l0 -198 -182 -2 -183 -3 -3 -207 -2 -208 185 0 185 0 0 -545 0 -545 220 0 220
0 0 545 0 545 180 0 c99 0 180 1 180 3 0 1 11 85 25 186 14 101 25 194 25 207
l0 24 -205 0 -205 0 0 173 c0 159 2 176 23 217 35 71 69 82 254 88 l153 5 0
182 c0 165 -2 184 -17 190 -10 3 -101 8 -203 11 -139 3 -201 0 -249 -11z"/>
</g>
</svg>
