<?xml version="1.0" standalone="no"?>
<!DOCTYPE svg PUBLIC "-//W3C//DTD SVG 20010904//EN"
 "http://www.w3.org/TR/2001/REC-SVG-20010904/DTD/svg10.dtd">
<svg version="1.0" xmlns="http://www.w3.org/2000/svg"
 width="512.000000pt" height="512.000000pt" viewBox="0 0 512.000000 512.000000"
 preserveAspectRatio="xMidYMid meet">
<metadata>
Created by potrace 1.16, written by Peter Selinger 2001-2019
</metadata>
<g transform="translate(0.000000,512.000000) scale(0.100000,-0.100000)"
fill="#000000" stroke="none">
<path d="M2335 4749 c-407 -38 -844 -219 -1175 -486 -89 -72 -267 -254 -331
-338 -438 -573 -578 -1301 -382 -1980 72 -252 214 -531 382 -750 64 -84 242
-266 331 -338 312 -252 694 -418 1105 -478 132 -20 500 -17 646 4 336 50 626
158 884 332 476 320 768 817 857 1460 17 123 17 506 -1 618 l-13 87 -1039 0
-1039 0 0 -380 0 -380 620 0 c355 0 620 -4 620 -9 0 -30 -57 -198 -90 -263
-204 -408 -592 -645 -1090 -665 -685 -28 -1277 460 -1396 1147 -12 73 -15 136
-11 275 4 159 8 194 35 297 180 690 826 1125 1520 1022 232 -34 462 -139 613
-281 49 -46 49 -46 71 -27 51 44 583 559 583 565 0 9 -110 103 -192 165 -414
313 -948 455 -1508 403z"/>
</g>
</svg>
