<?xml version="1.0" encoding="UTF-8" standalone="no"?>
<svg
   xmlns:dc="http://purl.org/dc/elements/1.1/"
   xmlns:cc="http://creativecommons.org/ns#"
   xmlns:rdf="http://www.w3.org/1999/02/22-rdf-syntax-ns#"
   xmlns:svg="http://www.w3.org/2000/svg"
   xmlns="http://www.w3.org/2000/svg"
   viewBox="0 0 4000 4000"
   height="4000"
   width="4000"
   xml:space="preserve"
   id="svg2"
   version="1.1"><metadata
     id="metadata8"><rdf:RDF><cc:Work
         rdf:about=""><dc:format>image/svg+xml</dc:format><dc:type
           rdf:resource="http://purl.org/dc/dcmitype/StillImage" /></cc:Work></rdf:RDF></metadata><defs
     id="defs6"><linearGradient
       id="linearGradient28"
       spreadMethod="pad"
       gradientTransform="matrix(1219.2469,0,0,-1219.2469,859.64301,1468.7451)"
       gradientUnits="userSpaceOnUse"
       y2="0"
       x2="1"
       y1="0"
       x1="0"><stop
         id="stop24"
         offset="0"
         style="stop-opacity:1;stop-color:#29b7c3" /><stop
         id="stop26"
         offset="1"
         style="stop-opacity:1;stop-color:#42b59d" /></linearGradient><linearGradient
       id="linearGradient48"
       spreadMethod="pad"
       gradientTransform="matrix(1524.3737,0,0,-1524.3737,385.6167,1548.6399)"
       gradientUnits="userSpaceOnUse"
       y2="0"
       x2="1"
       y1="0"
       x1="0"><stop
         id="stop44"
         offset="0"
         style="stop-opacity:1;stop-color:#29b7c3" /><stop
         id="stop46"
         offset="1"
         style="stop-opacity:1;stop-color:#42b59d" /></linearGradient><linearGradient
       id="linearGradient68"
       spreadMethod="pad"
       gradientTransform="matrix(1524.533,0,0,-1524.533,1028.8354,1388.8503)"
       gradientUnits="userSpaceOnUse"
       y2="0"
       x2="1"
       y1="0"
       x1="0"><stop
         id="stop64"
         offset="0"
         style="stop-opacity:1;stop-color:#29b7c3" /><stop
         id="stop66"
         offset="1"
         style="stop-opacity:1;stop-color:#42b59d" /></linearGradient></defs><g
     transform="matrix(1.3333333,0,0,-1.3333333,0,4000)"
     id="g10"><g
       id="g12"><g
         id="g14"><g
           id="g20"><g
             id="g22"><path
               id="path30"
               style="fill:url(#linearGradient28);stroke:none"
               d="M 1038.262,1899.928 C 923.085,1784.749 859.643,1631.624 859.643,1468.733 v 0 c 0,-162.868 63.442,-315.991 178.619,-431.169 v 0 c 114.971,-114.96 268.096,-178.279 431.169,-178.279 v 0 c 163.074,0 316.187,63.319 431.158,178.279 v 0 c 237.734,237.745 237.734,624.617 0,862.364 v 0 c -114.984,114.959 -268.109,178.277 -431.171,178.277 v 0 c -163.06,0 -316.174,-63.318 -431.156,-178.277 m 103.364,-758.964 c -87.578,87.527 -135.8,203.941 -135.8,327.769 v 0 c 0,123.852 48.222,240.266 135.8,327.793 v 0 c 87.431,87.431 203.843,135.581 327.792,135.581 v 0 c 123.963,0 240.377,-48.15 327.806,-135.581 v 0 c 87.432,-87.405 135.571,-203.819 135.571,-327.769 v 0 c 0,-123.973 -48.139,-240.387 -135.571,-327.793 v 0 c -87.429,-87.432 -203.843,-135.581 -327.806,-135.581 v 0 c -123.96,0 -240.374,48.149 -327.792,135.581" /></g></g></g></g><g
       id="g32"><g
         id="g34"><g
           id="g40"><g
             id="g42"><path
               id="path50"
               style="fill:url(#linearGradient48);stroke:none"
               d="M 702.351,2235.813 C 339.116,1872.568 281.381,1298.135 565.06,869.97 v 0 l 7.853,-11.848 -6.254,-12.772 C 527.33,764.995 543.25,668.672 606.291,605.617 v 0 c 39.404,-39.377 91.866,-61.09 147.747,-61.09 v 0 c 55.88,0 108.356,21.69 147.746,61.09 v 0 c 81.471,81.471 81.471,214.022 0,295.493 v 0 c -39.245,39.255 -91.586,60.87 -147.382,60.87 v 0 c -17.109,0 -34.191,-2.082 -50.779,-6.176 v 0 l -17.351,-4.29 -9.572,15.095 c -233.01,367.753 -178.752,858.052 129.025,1165.83 v 0 c 176.873,176.874 412.439,274.287 663.282,274.287 v 0 c 124.034,0 244.348,-23.699 358.049,-70.491 v 0 c 19.494,46.333 47.205,87.649 82.621,123.053 v 0 c 0.107,0.095 0.218,0.193 0.313,0.314 v 0 c -137.882,61.018 -289.589,93.151 -441.152,93.151 v 0 c -289.906,0 -562.111,-112.561 -766.487,-316.94 M 667.175,666.515 c -23.176,23.166 -35.937,54.013 -35.937,86.848 v 0 c 0,32.86 12.761,63.707 35.937,86.875 v 0 c 23.18,23.166 54.027,35.935 86.863,35.935 v 0 c 32.846,0 63.696,-12.769 86.872,-35.935 v 0 c 47.897,-47.885 47.897,-125.841 0,-173.723 v 0 c -23.165,-23.191 -54.026,-35.938 -86.872,-35.938 v 0 c -32.836,0 -63.696,12.747 -86.863,35.938" /></g></g></g></g><g
       id="g52"><g
         id="g54"><g
           id="g60"><g
             id="g62"><path
               id="path70"
               style="fill:url(#linearGradient68);stroke:none"
               d="m 2037.055,2331.873 c -39.403,-39.403 -61.091,-91.866 -61.091,-147.747 v 0 c 0,-55.88 21.688,-108.343 61.091,-147.746 v 0 c 39.245,-39.256 91.599,-60.871 147.419,-60.871 v 0 c 17.083,0 34.144,2.084 50.695,6.154 v 0 l 17.35,4.289 9.559,-15.096 c 233.021,-367.754 178.788,-858.051 -128.966,-1165.803 v 0 C 1956.238,628.179 1720.675,530.788 1469.832,530.788 v 0 c -124.034,0 -244.349,23.699 -358.049,70.469 v 0 c -19.494,-46.334 -47.218,-87.65 -82.62,-123.055 v 0 c -0.108,-0.096 -0.219,-0.216 -0.328,-0.315 v 0 c 137.883,-61.018 289.59,-93.149 441.142,-93.149 v 0 h 0.024 c 289.869,0 562.112,112.56 766.487,316.939 v 0 c 363.368,363.366 421.162,937.894 137.411,1366.085 v 0 l -7.839,11.849 6.228,12.748 c 39.195,80.305 23.227,176.556 -39.741,239.514 v 0 c -39.404,39.377 -91.866,61.09 -147.747,61.09 v 0 c -55.879,0 -108.355,-21.689 -147.745,-61.09 m 60.871,-234.619 c -47.894,47.883 -47.894,125.838 0,173.721 v 0 c 23.169,23.191 54.028,35.938 86.874,35.938 v 0 c 32.837,0 63.697,-12.747 86.863,-35.938 v 0 c 23.177,-23.166 35.935,-54.013 35.935,-86.872 v 0 c 0,-32.836 -12.758,-63.683 -35.935,-86.849 v 0 c -23.18,-23.166 -54.026,-35.937 -86.863,-35.937 v 0 c -32.846,0 -63.695,12.771 -86.874,35.937" /></g></g></g></g></g></svg>