<svg width="164" height="164" viewBox="0 0 164 164" fill="none" xmlns="http://www.w3.org/2000/svg">
<g clip-path="url(#clip0_1:22)">
<path d="M113.93 49.0514C122.589 57.7113 127.359 69.2239 127.358 81.4703C127.357 93.715 122.586 105.227 113.925 113.886C105.28 122.528 93.7661 127.288 81.5045 127.287C69.2428 127.286 57.7304 122.525 49.0862 113.881C31.2119 96.006 31.2138 66.9202 49.0904 49.0471C57.7368 40.4048 69.2507 35.6452 81.5115 35.646C93.7721 35.6468 105.285 40.408 113.93 49.0514V49.0514ZM106.154 106.111C112.739 99.5312 116.366 90.7792 116.366 81.4696C116.367 72.1582 112.742 63.4057 106.157 56.8248C99.5835 50.2512 90.8306 46.6306 81.5108 46.63C72.1899 46.6293 63.4363 50.2488 56.862 56.8216C50.2875 63.3924 46.6673 72.1444 46.6667 81.4632C46.6661 90.7837 50.2851 99.5362 56.8588 106.108C63.4322 112.682 72.1853 116.302 81.5062 116.303C90.8268 116.303 99.5803 112.684 106.154 106.111Z" fill="url(#paint0_linear_1:22)"/>
<path d="M139.189 23.8005C166.5 51.1117 170.838 94.299 149.506 126.488L148.915 127.379L149.385 128.339C152.342 134.38 151.145 141.622 146.404 146.362C143.441 149.322 139.496 150.955 135.295 150.954C131.093 150.954 127.147 149.323 124.186 146.361C118.06 140.235 118.061 130.27 124.187 124.145C127.138 121.194 131.074 119.569 135.269 119.569C136.556 119.57 137.84 119.726 139.087 120.034L140.392 120.357L141.112 119.222C158.634 91.5746 154.557 54.7127 131.416 31.5718C118.118 18.2732 100.406 10.9483 81.5447 10.9471C72.2184 10.9465 63.1718 12.7276 54.6223 16.245C53.1567 12.7615 51.0733 9.65512 48.4105 6.99321C48.4025 6.98606 48.3941 6.9787 48.387 6.9696C58.7548 2.38283 70.1619 -0.0322251 81.5581 -0.0314732C103.356 -0.0300348 123.823 8.43386 139.189 23.8005V23.8005ZM141.827 141.783C143.569 140.042 144.529 137.723 144.529 135.254C144.529 132.784 143.57 130.465 141.827 128.723C140.085 126.981 137.765 126.021 135.296 126.021C132.827 126.02 130.507 126.98 128.764 128.722C125.162 132.322 125.162 138.183 128.763 141.783C130.505 143.526 132.825 144.485 135.295 144.485C137.764 144.485 140.084 143.527 141.827 141.783" fill="url(#paint1_linear_1:22)"/>
<path d="M38.8315 16.5718C41.7941 19.5344 43.4245 23.4788 43.4243 27.6801C43.424 31.8812 41.793 35.8254 38.83 38.7876C35.879 41.7387 31.9423 43.3635 27.7452 43.3632C26.4607 43.3632 25.1779 43.2064 23.9334 42.9003L22.6289 42.5778L21.91 43.7127C4.38715 71.36 8.46254 108.222 31.6013 131.361C44.8998 144.659 62.6115 151.982 81.4726 151.984C90.7988 151.984 99.8456 150.203 108.395 146.687C109.861 150.171 111.945 153.277 114.607 155.939C114.615 155.947 114.623 155.956 114.631 155.963C104.263 160.55 92.8563 162.965 81.461 162.964L81.4592 162.964C59.6637 162.963 39.194 154.499 23.8279 139.132C-3.4923 111.812 -7.83503 68.6174 13.5026 36.4265L14.0921 35.5357L13.6238 34.5773C10.6771 28.5396 11.8783 21.3034 16.6132 16.5704C19.5762 13.6101 23.521 11.978 27.7227 11.9783C31.9243 11.9785 35.8699 13.6094 38.8315 16.5718V16.5718ZM34.2534 34.2107C37.8548 30.611 37.8552 24.7501 34.2543 21.15C32.5123 19.4063 30.192 18.4478 27.7223 18.4476C25.2533 18.4475 22.9328 19.4057 21.1908 21.1491C19.448 22.8907 18.4886 25.2097 18.4884 27.6801C18.4882 30.1488 19.4474 32.468 21.19 34.2098C22.9328 35.9516 25.252 36.9119 27.7211 36.912C30.1908 36.9122 32.5104 35.9522 34.2534 34.2107Z" fill="url(#paint2_linear_1:22)"/>
</g>
<defs>
<linearGradient id="paint0_linear_1:22" x1="127.358" y1="81.4694" x2="35.6817" y2="81.4634" gradientUnits="userSpaceOnUse">
<stop stop-color="#3FBAEB"/>
<stop offset="1" stop-color="#33FFBB" stop-opacity="0.666667"/>
</linearGradient>
<linearGradient id="paint1_linear_1:22" x1="163.002" y1="75.465" x2="48.3825" y2="75.4575" gradientUnits="userSpaceOnUse">
<stop stop-color="#3FBAEB"/>
<stop offset="1" stop-color="#33FFBB" stop-opacity="0.666667"/>
</linearGradient>
<linearGradient id="paint2_linear_1:22" x1="114.636" y1="87.4751" x2="0.00475124" y2="87.4675" gradientUnits="userSpaceOnUse">
<stop stop-color="#3FBAEB"/>
<stop offset="1" stop-color="#33FFBB" stop-opacity="0.666667"/>
</linearGradient>
<clipPath id="clip0_1:22">
<rect width="162.996" height="162.996" fill="white" transform="matrix(-1 -6.59849e-05 -6.59849e-05 1 163.006 0.0107422)"/>
</clipPath>
</defs>
</svg>
