<?xml version="1.0" standalone="no"?>
<!DOCTYPE svg PUBLIC "-//W3C//DTD SVG 20010904//EN"
 "http://www.w3.org/TR/2001/REC-SVG-20010904/DTD/svg10.dtd">
<svg version="1.0" xmlns="http://www.w3.org/2000/svg"
 width="512.000000pt" height="512.000000pt" viewBox="0 0 512.000000 512.000000"
 preserveAspectRatio="xMidYMid meet">
<metadata>
Created by potrace 1.16, written by Peter Selinger 2001-2019
</metadata>
<g transform="translate(0.000000,512.000000) scale(0.100000,-0.100000)"
fill="#000000" stroke="none">
<path d="M3454 4639 c-437 -31 -819 -354 -930 -787 -31 -120 -41 -276 -25
-396 7 -48 9 -91 6 -94 -3 -3 -62 0 -131 7 -740 73 -1442 434 -1937 996 -39
44 -74 81 -78 83 -10 4 -53 -81 -84 -166 -48 -135 -60 -207 -59 -372 1 -133 5
-169 28 -255 28 -107 79 -223 141 -319 38 -60 195 -225 250 -264 l30 -21 -40
5 c-145 18 -237 44 -358 98 -32 14 -60 26 -64 26 -9 0 5 -160 22 -237 57 -270
224 -512 454 -662 95 -61 234 -123 306 -137 l40 -7 -30 -9 c-69 -19 -240 -29
-329 -18 -49 6 -91 9 -93 6 -8 -8 49 -141 95 -218 154 -261 436 -456 722 -498
41 -6 90 -14 109 -16 l33 -5 -61 -45 c-269 -196 -608 -328 -961 -375 -102 -13
-437 -18 -482 -6 -42 11 -34 -5 20 -37 371 -227 787 -370 1227 -421 150 -18
498 -21 655 -5 495 49 951 209 1340 468 169 113 292 214 435 357 560 560 894
1355 895 2127 l0 156 89 72 c112 89 289 273 371 386 34 47 60 87 58 90 -3 2
-52 -14 -111 -36 -58 -22 -157 -53 -219 -69 -116 -30 -245 -53 -231 -41 4 3
33 25 64 48 74 56 176 163 228 240 46 68 116 209 127 256 l7 29 -84 -45 c-159
-86 -383 -170 -526 -198 l-62 -12 -67 60 c-207 191 -485 282 -790 261z"/>
</g>
</svg>
