<?xml version="1.0" standalone="no"?>
<!DOCTYPE svg PUBLIC "-//W3C//DTD SVG 20010904//EN"
 "http://www.w3.org/TR/2001/REC-SVG-20010904/DTD/svg10.dtd">
<svg version="1.0" xmlns="http://www.w3.org/2000/svg"
 width="295.000000pt" height="295.000000pt" viewBox="0 0 295.000000 295.000000"
 preserveAspectRatio="xMidYMid meet">
<metadata>
Created by potrace 1.14, written by Peter Selinger 2001-2017
</metadata>
<g transform="translate(0.000000,295.000000) scale(0.100000,-0.100000)"
fill="#000000" stroke="none">
<path d="M2402 1954 c-35 -24 -44 -59 -28 -98 27 -66 121 -64 144 3 26 74 -54
139 -116 95z"/>
<path d="M2705 1945 c-75 -75 34 -186 111 -114 51 48 14 139 -56 139 -19 0
-40 -9 -55 -25z"/>
<path d="M246 1691 c-74 -26 -132 -81 -144 -136 -18 -85 3 -147 67 -193 22
-16 92 -45 165 -67 130 -40 161 -58 172 -100 18 -71 -104 -132 -204 -101 -35
10 -92 67 -92 91 0 12 -15 15 -65 15 -71 0 -73 -2 -54 -61 48 -143 280 -206
439 -120 104 57 129 202 49 287 -25 27 -92 57 -199 88 -103 31 -147 57 -156
92 -16 65 38 115 125 116 67 0 110 -25 136 -80 l19 -42 58 0 c57 0 58 1 58 28
-1 68 -61 145 -139 178 -54 23 -176 26 -235 5z"/>
<path d="M995 1696 c-169 -53 -256 -181 -250 -367 3 -89 25 -158 72 -220 96
-127 292 -166 447 -90 128 63 189 169 189 326 0 157 -61 263 -188 326 -52 25
-77 31 -147 34 -49 2 -99 -2 -123 -9z m174 -107 c52 -16 106 -61 134 -112 18
-35 22 -58 22 -133 0 -83 -2 -94 -30 -140 -65 -103 -192 -142 -298 -90 -90 44
-127 117 -124 242 3 85 21 135 63 178 57 56 154 79 233 55z"/>
<path d="M1809 1697 c-104 -30 -187 -106 -225 -208 -26 -69 -23 -229 5 -300
29 -75 86 -138 156 -174 110 -55 273 -43 372 28 46 32 97 103 108 150 l7 27
-64 0 c-63 0 -65 -1 -81 -34 -53 -112 -236 -136 -324 -43 -57 60 -68 92 -68
202 0 108 15 154 67 202 101 94 294 58 332 -62 5 -17 14 -20 65 -20 33 0 63 3
67 7 12 13 -25 93 -64 135 -53 59 -132 93 -229 98 -47 3 -96 0 -124 -8z"/>
<path d="M2383 1343 l0 -354 61 3 61 3 0 353 1 353 -62 -2 -62 -2 1 -354z"/>
<path d="M2700 1650 c-1 -27 -1 -160 -1 -295 0 -135 0 -272 1 -305 l0 -60 60
0 60 0 0 355 0 355 -60 0 -60 0 0 -50z"/>
</g>
</svg>
