<?xml version="1.0" standalone="no"?>
<!DOCTYPE svg PUBLIC "-//W3C//DTD SVG 20010904//EN"
 "http://www.w3.org/TR/2001/REC-SVG-20010904/DTD/svg10.dtd">
<svg version="1.0" xmlns="http://www.w3.org/2000/svg"
 width="700.000000pt" height="700.000000pt" viewBox="0 0 700.000000 700.000000"
 preserveAspectRatio="xMidYMid meet">
<metadata>
Created by potrace 1.14, written by Peter Selinger 2001-2017
</metadata>
<g transform="translate(0.000000,700.000000) scale(0.100000,-0.100000)"
fill="#000000" stroke="none">
<path d="M3308 5955 c-2 -1 -43 -5 -93 -9 -49 -3 -101 -8 -115 -10 -14 -2 -59
-10 -100 -16 -396 -63 -807 -245 -1135 -503 -461 -363 -780 -874 -904 -1446
-16 -75 -32 -158 -36 -186 -3 -27 -8 -66 -11 -85 -10 -61 -12 -432 -3 -515 38
-347 136 -675 281 -939 21 -38 38 -71 38 -73 0 -2 23 -40 51 -84 l52 -81 -27
-77 c-117 -337 123 -671 475 -657 178 7 337 111 414 271 41 86 52 140 49 230
-8 249 -213 459 -456 467 -54 2 -144 -7 -171 -18 -19 -7 -68 71 -152 241 -150
306 -220 610 -219 960 0 112 11 292 18 304 2 3 7 31 10 61 11 95 72 316 127
460 31 79 142 293 197 376 179 272 425 510 696 674 212 127 492 236 711 274
17 3 39 8 50 10 83 16 234 28 360 29 192 0 310 -11 455 -43 25 -6 54 -12 65
-14 50 -10 147 -38 225 -66 47 -17 89 -32 94 -33 5 -1 23 26 42 61 38 73 121
189 141 196 41 16 -8 44 -182 103 -126 43 -212 66 -345 91 -173 34 -263 43
-452 46 -81 2 -149 2 -150 1z m-1458 -3927 c193 -61 256 -306 120 -462 -174
-198 -505 -60 -495 207 8 187 192 313 375 255z"/>
<path d="M5055 5579 c-247 -24 -431 -216 -441 -459 -6 -143 41 -267 142 -366
123 -123 284 -167 471 -129 31 7 32 6 89 -91 117 -198 227 -491 259 -684 3
-19 7 -46 10 -60 6 -30 13 -84 21 -160 12 -111 6 -372 -11 -490 -70 -493 -288
-933 -627 -1267 -183 -180 -356 -303 -583 -413 -220 -107 -484 -185 -706 -207
-94 -10 -416 -10 -494 -1 -166 20 -307 52 -455 103 -58 20 -112 38 -121 41
-11 4 -20 -4 -29 -27 -20 -46 -106 -176 -145 -217 l-33 -36 46 -21 c56 -26
272 -98 357 -119 119 -30 227 -49 340 -61 33 -4 76 -8 95 -11 47 -5 336 -5
380 1 19 2 64 7 100 9 135 12 338 56 518 115 408 133 830 416 1102 740 25 30
50 59 55 65 18 19 119 158 156 216 142 217 277 527 330 757 6 27 12 53 13 58
36 144 59 353 60 540 1 241 -8 338 -51 540 -66 315 -173 579 -343 847 l-38 60
23 57 c45 109 51 209 19 323 -30 106 -85 185 -177 254 -97 72 -214 105 -332
93z m180 -231 c129 -69 185 -242 120 -374 -130 -266 -529 -184 -541 111 -9
220 225 366 421 263z"/>
<path d="M3298 4845 c-2 -2 -26 -6 -53 -9 -131 -13 -296 -62 -433 -128 -439
-212 -737 -629 -797 -1116 -27 -219 9 -484 94 -697 128 -319 393 -601 705
-749 84 -40 218 -89 277 -102 179 -37 315 -46 483 -31 522 49 983 399 1180
899 29 75 72 229 82 298 9 68 13 368 4 404 -4 17 -13 63 -20 101 -29 160 -118
371 -222 523 -73 107 -263 295 -370 366 -148 97 -361 190 -488 212 -19 3 -60
10 -90 16 -54 10 -344 21 -352 13z m302 -350 c440 -83 766 -381 877 -803 33
-126 38 -360 10 -488 -73 -334 -281 -596 -599 -755 -31 -16 -62 -29 -68 -29
-5 0 -18 -4 -28 -10 -14 -8 -52 -19 -117 -36 -5 -1 -28 -5 -50 -9 -22 -3 -53
-8 -68 -11 -36 -7 -209 -7 -267 1 -407 53 -753 337 -885 726 -56 164 -71 370
-41 539 40 221 158 436 324 592 177 167 369 255 632 291 38 6 241 0 280 -8z"/>
</g>
</svg>
